<?xml version="1.0" standalone="no"?>
<!DOCTYPE svg PUBLIC "-//W3C//DTD SVG 20010904//EN"
 "http://www.w3.org/TR/2001/REC-SVG-20010904/DTD/svg10.dtd">
<svg version="1.0" xmlns="http://www.w3.org/2000/svg"
 width="223.000000pt" height="223.000000pt" viewBox="0 0 223.000000 223.000000"
 preserveAspectRatio="xMidYMid meet">
<metadata>
Created by potrace 1.11, written by Peter Selinger 2001-2013
</metadata>
<g transform="translate(0.000000,223.000000) scale(0.100000,-0.100000)"
fill="#000000" stroke="none">
<path d="M1495 2005 c-184 -33 -330 -142 -387 -287 -32 -81 -30 -203 5 -291
36 -91 79 -154 231 -337 149 -178 191 -240 223 -328 78 -214 -51 -423 -262
-423 -78 0 -151 31 -180 78 -68 110 -104 161 -163 230 -94 110 -229 249 -285
294 -54 43 -54 48 1 20 61 -32 101 -66 234 -198 146 -145 137 -145 157 2 35
248 -100 438 -347 491 -166 35 -327 -1 -482 -106 l-61 -41 40 -29 c51 -38 82
-91 135 -237 49 -136 76 -183 136 -237 87 -79 215 -110 350 -86 74 13 155 22
125 14 -62 -16 -88 -28 -105 -47 -67 -71 52 -215 235 -288 54 -21 76 -23 215
-23 144 0 161 1 235 27 246 87 389 258 402 482 12 193 -60 338 -283 577 -180
192 -234 284 -234 394 0 74 16 124 53 170 87 105 275 96 319 -16 14 -36 11
-134 -6 -173 -7 -18 -28 -50 -46 -70 -37 -43 -33 -55 34 -89 84 -43 190 -6
232 79 26 54 31 168 9 232 -36 111 -161 199 -310 221 -88 12 -132 11 -220 -5z"/>
</g>
</svg>
