<?xml version="1.0" standalone="no"?>
<!DOCTYPE svg PUBLIC "-//W3C//DTD SVG 20010904//EN"
 "http://www.w3.org/TR/2001/REC-SVG-20010904/DTD/svg10.dtd">
<svg version="1.0" xmlns="http://www.w3.org/2000/svg"
 width="260.000000pt" height="260.000000pt" viewBox="0 0 260.000000 260.000000"
 preserveAspectRatio="xMidYMid meet">
<metadata>
Created by potrace 1.11, written by Peter Selinger 2001-2013
</metadata>
<g transform="translate(0.000000,260.000000) scale(0.100000,-0.100000)"
fill="#000000" stroke="none">
<path d="M1830 2575 c-369 -77 -588 -322 -567 -634 14 -205 101 -351 451 -751
115 -132 211 -293 240 -405 20 -79 15 -203 -12 -278 -78 -216 -321 -321 -526
-228 -76 34 -84 42 -125 121 -27 52 -149 220 -206 285 -163 184 -260 285 -380
392 -78 71 -73 81 13 27 89 -57 195 -150 345 -302 75 -77 139 -137 141 -133
15 25 39 172 42 251 9 286 -137 497 -405 584 -259 85 -546 34 -779 -139 l-64
-46 49 -35 c86 -61 118 -114 188 -314 68 -193 100 -254 170 -324 71 -72 155
-119 251 -142 85 -20 255 -13 359 14 70 19 95 19 95 1 0 -6 -4 -8 -8 -5 -14 9
-96 -15 -129 -37 -59 -40 -67 -90 -28 -166 60 -120 220 -230 400 -276 102 -27
355 -27 465 0 246 60 425 177 545 355 103 154 138 348 98 545 -27 132 -157
358 -285 496 -18 20 -77 83 -130 140 -126 136 -189 215 -232 292 -119 212 -68
451 114 540 35 17 63 22 125 21 70 0 87 -3 128 -27 30 -18 56 -44 74 -75 25
-41 28 -57 28 -132 0 -99 -26 -168 -91 -240 l-39 -43 44 -38 c69 -61 168 -77
253 -40 164 70 208 344 87 533 -70 108 -206 186 -379 217 -73 13 -251 11 -320
-4z"/>
</g>
</svg>
